HIERARCHY
ROOT Hips
{
	OFFSET 0.000000 0.000000 0.000000
	CHANNELS 6 Xposition Yposition Zposition Xrotation Yrotation Zrotation
	JOINT LeftUpLeg_virtual
	{
		OFFSET 0.000000 0.000000 0.000000
		CHANNELS 3 Xrotation Yrotation Zrotation
		JOINT LeftUpLeg
		{
			OFFSET 15.427100 -6.655098 0.678600
			CHANNELS 3 Xrotation Yrotation Zrotation
			JOINT LeftLeg
			{
				OFFSET 4.081073 -39.591068 13.024000
				CHANNELS 3 Xrotation Yrotation Zrotation
				JOINT LeftFoot
				{
					OFFSET -4.081074 -37.707932 -15.979700
					CHANNELS 3 Xrotation Yrotation Zrotation
					JOINT LeftToeBase
					{
						OFFSET 5.346399 -15.068900 20.645000
						CHANNELS 3 Xrotation Yrotation Zrotation
						JOINT LeftToe_End
						{
							OFFSET 2.754700 0.931300 11.300900
							CHANNELS 3 Xrotation Yrotation Zrotation
							End Site
							{
								OFFSET 0 0 0
							}
						}
					}
				}
			}
		}
	}
	JOINT RightUpLeg_virtual
	{
		OFFSET 0.000000 0.000000 0.000000
		CHANNELS 3 Xrotation Yrotation Zrotation
		JOINT RightUpLeg
		{
			OFFSET -15.569500 -6.655098 0.678600
			CHANNELS 3 Xrotation Yrotation Zrotation
			JOINT RightLeg
			{
				OFFSET -4.081825 -39.591045 13.023800
				CHANNELS 3 Xrotation Yrotation Zrotation
				JOINT RightFoot
				{
					OFFSET 4.081824 -37.707954 -15.979600
					CHANNELS 3 Xrotation Yrotation Zrotation
					JOINT RightToeBase
					{
						OFFSET -5.346400 -15.068900 20.645000
						CHANNELS 3 Xrotation Yrotation Zrotation
						JOINT RightToe_End
						{
							OFFSET -2.754700 0.931300 11.300900
							CHANNELS 3 Xrotation Yrotation Zrotation
							End Site
							{
								OFFSET 0 0 0
							}
						}
					}
				}
			}
		}
	}
	JOINT Spine_virtual
	{
		OFFSET 0.000000 0.000000 0.000000
		CHANNELS 3 Xrotation Yrotation Zrotation
		JOINT Spine
		{
			OFFSET -0.279200 12.230698 -2.892100
			CHANNELS 3 Xrotation Yrotation Zrotation
			JOINT Spine1
			{
				OFFSET -0.232667 10.192268 -1.242267
				CHANNELS 3 Xrotation Yrotation Zrotation
				JOINT Spine1_split
				{
					OFFSET -0.232667 10.192268 -1.242267
					CHANNELS 3 Xrotation Yrotation Zrotation
					JOINT Spine2
					{
						OFFSET -0.232667 10.192268 -1.242267
						CHANNELS 3 Xrotation Yrotation Zrotation
						JOINT Neck_virtual
						{
							OFFSET 0.000000 0.000000 0.000000
							CHANNELS 3 Xrotation Yrotation Zrotation
							JOINT Neck
							{
								OFFSET -0.418800 17.814194 8.416900
								CHANNELS 3 Xrotation Yrotation Zrotation
								JOINT Head
								{
									OFFSET 0.000000 7.031097 3.806800
									CHANNELS 3 Xrotation Yrotation Zrotation
									JOINT HeadTop_End
									{
										OFFSET 0.000000 24.646606 12.978600
										CHANNELS 3 Xrotation Yrotation Zrotation
										End Site
										{
											OFFSET 0 0 0
										}
									}
								}
							}
						}
						JOINT LeftShoulder_virtual
						{
							OFFSET 0.000000 0.000000 0.000000
							CHANNELS 3 Xrotation Yrotation Zrotation
							JOINT LeftShoulder
							{
								OFFSET 8.476499 7.247704 -3.868750
								CHANNELS 3 Xrotation Yrotation Zrotation
								JOINT LeftShoulder_split
								{
									OFFSET 8.476499 7.247704 -3.868750
									CHANNELS 3 Xrotation Yrotation Zrotation
									JOINT LeftArm
									{
										OFFSET 9.308998 -2.777710 0.208600
										CHANNELS 3 Xrotation Yrotation Zrotation
										JOINT LeftForeArm
										{
											OFFSET 29.972298 0.000000 0.000000
											CHANNELS 3 Xrotation Yrotation Zrotation
											JOINT LeftHand
											{
												OFFSET 26.026505 0.000000 0.000000
												CHANNELS 3 Xrotation Yrotation Zrotation
												End Site
												{
													OFFSET 0 0 0
												}
											}
										}
									}
								}
							}
						}
						JOINT RightShoulder_virtual
						{
							OFFSET 0.000000 0.000000 0.000000
							CHANNELS 3 Xrotation Yrotation Zrotation
							JOINT RightShoulder
							{
								OFFSET -7.570500 7.247704 -3.868750
								CHANNELS 3 Xrotation Yrotation Zrotation
								JOINT RightShoulder_split
								{
									OFFSET -7.570500 7.247704 -3.868750
									CHANNELS 3 Xrotation Yrotation Zrotation
									JOINT RightArm
									{
										OFFSET -9.308998 -2.777710 0.208500
										CHANNELS 3 Xrotation Yrotation Zrotation
										JOINT RightForeArm
										{
											OFFSET -29.972300 0.000000 0.000000
											CHANNELS 3 Xrotation Yrotation Zrotation
											JOINT RightHand
											{
												OFFSET -26.026505 0.000000 0.000000
												CHANNELS 3 Xrotation Yrotation Zrotation
												End Site
												{
													OFFSET 0 0 0
												}
											}
										}
									}
								}
							}
						}
					}
				}
			}
		}
	}
}
MOTION
Frames: 4
Frame Time: 0.03333333
-6.876624 86.725975 -0.006245 0.000000 0.000000 0.000000 3.370557 29.425978 0.693028 -28.483926 -19.207592 2.217545 29.886411 13.213264 -8.410559 0.486182 -0.376689 -6.620394 2.458004 -1.725860 -0.246567 0.000000 0.000000 0.000000 4.317205 27.649294 0.395611 4.483279 -23.068233 -11.461753 25.901375 -5.829156 11.114729 -26.764129 -12.122747 0.023963 -2.204108 0.512888 0.753356 0.000000 0.000000 0.000000 4.600498 28.716776 -0.443888 3.700636 4.877278 -0.844695 0.450903 3.205026 0.508080 0.441471 0.732680 0.092085 0.000000 0.000000 0.000000 1.591275 2.812364 0.872098 -3.121315 11.910821 -6.867127 -6.256376 9.349155 10.022529 0.000000 0.000000 0.000000 0.433166 3.082176 0.907626 -0.033077 -2.031511 -3.187348 2.812434 -1.157088 -0.146774 -74.337901 -0.186114 -25.556392 1.322780 -65.438868 3.276124 0.000000 0.000000 0.000000 1.172448 3.054686 0.895772 4.222951 12.193617 8.157129 -5.265259 -0.455328 0.386213 14.573351 -6.139077 67.244005 16.940553 40.724395 -6.998331 0.000000 0.000000 0.000000 
-6.819221 86.887154 -0.235428 0.000000 0.000000 0.000000 3.925077 26.546174 0.443491 -27.800403 -18.474653 3.800311 29.527820 14.027498 -8.329405 0.334859 0.005330 -6.975568 2.641443 -1.746217 -0.364326 0.000000 0.000000 0.000000 4.966694 24.876563 0.167150 3.415132 -21.480146 -11.230747 25.734119 -5.523974 10.926932 -25.903059 -11.950172 -0.012442 -2.255720 0.509044 0.661710 0.000000 0.000000 0.000000 5.141509 26.023830 -0.689250 3.708101 4.649713 -1.000883 0.584599 3.075158 0.502721 0.414848 0.832880 0.019663 0.000000 0.000000 0.000000 1.676078 2.671944 0.846351 -3.885412 8.598900 -6.294501 -4.596649 6.165724 10.432359 0.000000 0.000000 0.000000 0.486478 2.938068 0.876732 -0.024902 -2.619659 -3.302671 2.734392 -0.964140 -0.009264 -74.749167 0.288720 -26.706697 1.894370 -67.688186 3.470106 0.000000 0.000000 0.000000 1.289007 2.908887 0.866661 4.201865 12.031502 7.954549 -5.281421 -0.333267 0.314858 14.020988 -5.936854 67.292922 17.360679 41.999427 -7.354554 0.000000 0.000000 0.000000 
-6.736935 87.043571 -0.508102 0.000000 0.000000 0.000000 4.519645 23.500502 0.181927 -27.194682 -17.894491 5.446077 29.199096 15.009720 -8.226907 0.189390 0.513995 -7.411584 2.846259 -1.740499 -0.530626 0.000000 0.000000 0.000000 5.645219 21.875525 -0.063816 2.218580 -19.789945 -10.974711 25.562972 -5.108007 10.755209 -24.989075 -11.709733 0.011614 -2.373759 0.497713 0.593467 0.000000 0.000000 0.000000 5.723765 23.069845 -0.929279 3.690139 4.416085 -1.137790 0.745585 2.933173 0.493454 0.410124 1.020792 -0.020854 0.000000 0.000000 0.000000 1.779696 2.524529 0.822073 -4.953444 5.259830 -5.837629 -2.956863 3.073798 10.656765 0.000000 0.000000 0.000000 0.553477 2.806471 0.847711 -0.002485 -3.285111 -3.313323 2.657705 -0.905496 0.083906 -75.025366 0.659962 -28.116578 2.728887 -70.078390 3.914943 0.000000 0.000000 0.000000 1.437440 2.766134 0.826975 4.157078 11.779302 7.715981 -5.229562 -0.205511 0.262847 13.493441 -5.602241 67.306672 17.841783 43.374017 -7.761444 0.000000 0.000000 0.000000 
-6.626219 87.198120 -0.810627 0.000000 0.000000 0.000000 5.128156 20.250819 -0.083795 -26.642661 -17.440162 7.156585 28.920455 16.138965 -8.092320 0.076653 1.138409 -7.946945 3.024290 -1.713428 -0.737802 0.000000 0.000000 0.000000 6.302952 18.633779 -0.283632 0.943420 -18.022170 -10.646016 25.368304 -4.573638 10.588361 -24.080561 -11.377587 0.058439 -2.525733 0.476278 0.562186 0.000000 0.000000 0.000000 6.311060 19.816025 -1.141464 3.651161 4.172076 -1.242952 0.921742 2.772801 0.486650 0.411247 1.299102 -0.004120 0.000000 0.000000 0.000000 1.892821 2.366872 0.805219 -6.321585 1.840922 -5.419334 -1.285954 -0.029955 10.729128 0.000000 0.000000 0.000000 0.634920 2.683043 0.824042 0.039313 -3.995956 -3.224844 2.577289 -1.010796 0.135581 -75.131828 0.812016 -29.794118 3.860351 -72.237897 4.651266 0.000000 0.000000 0.000000 1.618227 2.626130 0.781032 4.092693 11.478768 7.461911 -5.091843 -0.042485 0.188370 13.040120 -5.109271 67.209089 18.354848 44.758728 -8.171724 0.000000 0.000000 0.000000 
